<?xml version="1.0" standalone="no"?>
<!DOCTYPE svg PUBLIC "-//W3C//DTD SVG 20010904//EN"
 "http://www.w3.org/TR/2001/REC-SVG-20010904/DTD/svg10.dtd">
<svg version="1.0" xmlns="http://www.w3.org/2000/svg"
 width="500.000000pt" height="500.000000pt" viewBox="0 0 500.000000 500.000000"
 preserveAspectRatio="xMidYMid meet">
<metadata>
Created by potrace 1.11, written by Peter Selinger 2001-2013
</metadata>
<g transform="translate(0.000000,500.000000) scale(0.100000,-0.100000)"
fill="#000000" stroke="none">
<path d="M2345 4530 c-184 -29 -396 -106 -539 -198 -143 -92 -307 -245 -391
-367 l-38 -56 21 -83 c36 -149 105 -285 209 -413 l34 -42 42 29 c72 48 183 80
279 80 101 0 163 -16 257 -65 82 -43 177 -138 217 -216 32 -64 64 -188 64
-250 0 -70 -27 -176 -63 -244 -44 -84 -155 -192 -237 -231 -320 -153 -683 28
-756 376 -18 87 -13 168 16 262 l19 62 -37 44 c-20 25 -53 66 -73 91 -43 55
-139 219 -139 238 0 33 -19 7 -33 -44 -51 -187 -61 -412 -27 -654 86 -611 104
-806 104 -1124 1 -261 -1 -286 -22 -363 -38 -139 -97 -235 -162 -262 -35 -15
-35 -21 12 -115 168 -336 702 -595 1228 -595 425 0 804 98 1047 269 215 152
373 368 435 596 18 68 21 108 22 265 1 207 -8 268 -61 429 -44 132 -89 222
-168 337 -90 129 -179 214 -445 428 -444 358 -591 530 -656 771 -83 303 26
568 287 700 157 80 381 72 537 -20 72 -42 168 -143 210 -222 42 -80 78 -192
93 -291 7 -45 16 -82 19 -82 7 0 70 133 70 147 0 14 121 243 175 332 75 123
89 156 75 181 -13 25 -54 26 -195 5 -132 -19 -281 -19 -334 0 -23 8 -77 40
-119 71 -129 94 -306 173 -472 209 -89 19 -413 29 -505 15z"/>
<path d="M2974 3891 c-118 -72 -100 -246 31 -296 54 -21 106 -14 153 21 43 33
62 73 62 129 0 102 -61 165 -160 165 -36 0 -66 -6 -86 -19z"/>
<path d="M1863 3262 c-141 -50 -223 -164 -223 -310 0 -130 58 -229 170 -291
61 -34 70 -36 155 -36 83 0 95 3 153 34 113 61 172 161 172 291 0 136 -67 242
-187 297 -75 34 -169 40 -240 15z"/>
</g>
</svg>
